<svg width="60" height="60" viewBox="0 0 60 60" fill="none" xmlns="http://www.w3.org/2000/svg">
<path d="M36.0251 4.90849L42.5146 15.6263L54.5897 16.8285C59.7098 18.0786 61.7268 26.0913 58.3067 30.1489L50.2116 39.7122L51.2168 52.247C51.3164 53.4682 51.1046 54.6949 50.6015 55.8093C50.0984 56.9238 49.321 57.8887 48.3438 58.6115C47.3666 59.3343 46.2224 59.7907 45.0209 59.9369C43.8195 60.0832 42.601 59.9144 41.4825 59.4468L30.0145 54.6651L18.5466 59.4468C17.4267 59.9207 16.2052 60.0943 14.9998 59.9511C13.7944 59.8078 12.6458 59.3524 11.6648 58.6288C10.6838 57.9052 9.90349 56.9379 9.39912 55.82C8.89475 54.7022 8.68335 53.4716 8.78531 52.247L9.75671 39.7122L1.66168 30.1489C-1.71125 26.0913 0.305764 18.0786 5.41238 16.8285L17.4875 15.6263L23.9905 4.90849C24.6212 3.86568 25.5056 3.00424 26.5592 2.4066C27.6128 1.80896 28.8002 1.49512 30.0078 1.49512C31.2154 1.49512 32.4028 1.80896 33.4564 2.4066C34.5099 3.00424 35.3944 3.86568 36.0251 4.90849Z" fill="url(#paint0_linear_5153_7825)"/>
<path d="M35.8366 3.31129L42.1238 13.6738L53.8143 16.5428C54.9503 16.8207 55.9971 17.3886 56.8548 18.1925C57.7124 18.9964 58.3524 20.0093 58.7137 21.1348C59.0749 22.2603 59.1453 23.4607 58.9183 24.6216C58.6912 25.7824 58.1742 26.865 57.4166 27.7661L49.6117 37.0289L50.5493 49.1948C50.642 50.377 50.4331 51.5635 49.9426 52.6404C49.4521 53.7173 48.6965 54.6485 47.7483 55.3446C46.8001 56.0408 45.6911 56.4784 44.5278 56.6156C43.3645 56.7528 42.1859 56.585 41.1051 56.1282L30.0082 51.449L18.9045 56.1009C17.8259 56.5563 16.65 56.724 15.4892 56.588C14.3283 56.452 13.2213 56.0168 12.2739 55.324C11.3265 54.6312 10.5704 53.704 10.0778 52.6309C9.58522 51.5579 9.37262 50.3748 9.46032 49.1948L10.4047 37.0562L2.59979 27.7661C1.84217 26.865 1.32518 25.7824 1.09812 24.6216C0.871059 23.4607 0.941508 22.2603 1.30274 21.1348C1.66398 20.0093 2.30396 18.9964 3.16163 18.1925C4.0193 17.3886 5.06607 16.8207 6.20208 16.5428L17.8926 13.6738L24.1798 3.2908C24.7935 2.28314 25.6519 1.45157 26.6733 0.87547C27.6946 0.299365 28.8448 -0.00204487 30.0139 1.04413e-05C31.183 0.00206575 32.3321 0.307518 33.3514 0.88721C34.3708 1.4669 35.2264 2.30148 35.8366 3.31129Z" fill="url(#paint1_linear_5153_7825)"/>
<path d="M53.8159 16.5472L42.1253 13.6782L35.8382 3.31568C35.2262 2.30695 34.3692 1.47387 33.3488 0.895975C32.3285 0.318078 31.1789 0.0146484 30.0097 0.0146484C28.8406 0.0146484 27.691 0.318078 26.6707 0.895975C25.6503 1.47387 24.7933 2.30695 24.1813 3.31568L17.8942 13.6782L6.20361 16.5472L5.94727 16.6155C9.19061 24.5311 14.6782 31.2956 21.7166 36.0544C28.755 40.8131 37.0284 43.3526 45.4915 43.3519C47.0239 43.3505 48.5552 43.2662 50.0787 43.0991L49.6132 37.0332L57.4182 27.7705C58.1758 26.8694 58.6928 25.7868 58.9199 24.6259C59.1469 23.4651 59.0765 22.2647 58.7152 21.1392C58.354 20.0137 57.714 19.0008 56.8563 18.1969C55.9987 17.393 54.9519 16.8251 53.8159 16.5472Z" fill="url(#paint2_linear_5153_7825)"/>
<path d="M43.189 23.5231L36.2813 21.8769L32.5643 15.729C32.2956 15.2868 31.9196 14.9217 31.472 14.6685C31.0245 14.4152 30.5203 14.2822 30.0076 14.2822C29.4949 14.2822 28.9908 14.4152 28.5432 14.6685C28.0957 14.9217 27.7196 15.2868 27.4509 15.729L23.734 21.8769L16.8262 23.5231C16.3279 23.6454 15.8688 23.8949 15.4928 24.2477C15.1167 24.6006 14.8361 25.0452 14.6779 25.539C14.5196 26.0329 14.4889 26.5595 14.5886 27.0688C14.6884 27.578 14.9153 28.0529 15.2477 28.4482L19.8618 33.913L19.3087 41.0855C19.269 41.6032 19.3608 42.1226 19.5756 42.5941C19.7904 43.0656 20.1208 43.4736 20.5355 43.779C20.9501 44.0845 21.4351 44.2774 21.9443 44.3392C22.4534 44.401 22.9697 44.3297 23.4439 44.1321L30.0076 41.3997L36.5713 44.1321C37.0455 44.3297 37.5618 44.401 38.071 44.3392C38.5801 44.2774 39.0651 44.0845 39.4798 43.779C39.8944 43.4736 40.2249 43.0656 40.4396 42.5941C40.6544 42.1226 40.7463 41.6032 40.7065 41.0855L40.1534 33.913L44.7675 28.4482C45.1 28.0529 45.3269 27.578 45.4266 27.0688C45.5264 26.5595 45.4956 26.0329 45.3374 25.539C45.1791 25.0452 44.8985 24.6006 44.5225 24.2477C44.1464 23.8949 43.6873 23.6454 43.189 23.5231Z" fill="url(#paint3_linear_5153_7825)"/>
<path d="M16.8239 25.7432L23.7317 24.0628L27.4486 17.9149C27.7173 17.4727 28.0933 17.1076 28.5409 16.8544C28.9885 16.6011 29.4926 16.4681 30.0053 16.4681C30.518 16.4681 31.0222 16.6011 31.4697 16.8544C31.9173 17.1076 32.2933 17.4727 32.562 17.9149L36.279 24.0628L43.1867 25.7432C43.6553 25.8576 44.0896 26.0851 44.4526 26.4062C44.8155 26.7274 45.0964 27.1327 45.2712 27.5875C45.4336 27.1818 45.5076 26.7454 45.488 26.3081C45.4685 25.8708 45.3559 25.4429 45.158 25.0538C44.96 24.6646 44.6814 24.3233 44.3412 24.0532C44.001 23.7832 43.6072 23.5907 43.1867 23.489L36.279 21.8769L32.562 15.729C32.2933 15.2868 31.9173 14.9217 31.4697 14.6685C31.0222 14.4152 30.518 14.2822 30.0053 14.2822C29.4926 14.2822 28.9885 14.4152 28.5409 14.6685C28.0933 14.9217 27.7173 15.2868 27.4486 15.729L23.7317 21.8769L16.8239 23.5231C16.4034 23.6248 16.0096 23.8173 15.6694 24.0874C15.3292 24.3575 15.0506 24.6987 14.8527 25.0879C14.6547 25.4771 14.5421 25.905 14.5226 26.3423C14.5031 26.7796 14.577 27.216 14.7394 27.6217C14.9097 27.1605 15.1886 26.7483 15.5518 26.4209C15.9151 26.0936 16.3517 25.8609 16.8239 25.7432Z" fill="url(#paint4_linear_5153_7825)"/>
<defs>
<linearGradient id="paint0_linear_5153_7825" x1="30.0078" y1="13.01" x2="30.0078" y2="59.2965" gradientUnits="userSpaceOnUse">
<stop stop-color="#FCB534"/>
<stop offset="1" stop-color="#E38622"/>
</linearGradient>
<linearGradient id="paint1_linear_5153_7825" x1="30.0082" y1="1.05025" x2="30.0082" y2="54.0789" gradientUnits="userSpaceOnUse">
<stop stop-color="#FEEEA1"/>
<stop offset="1" stop-color="#FCB534"/>
</linearGradient>
<linearGradient id="paint2_linear_5153_7825" x1="22.4274" y1="43.1128" x2="33.1506" y2="19.8523" gradientUnits="userSpaceOnUse">
<stop stop-color="white" stop-opacity="0.5"/>
<stop offset="0.63" stop-color="white" stop-opacity="0"/>
</linearGradient>
<linearGradient id="paint3_linear_5153_7825" x1="30.0076" y1="46.4546" x2="30.0076" y2="14.5063" gradientUnits="userSpaceOnUse">
<stop stop-color="#FEEEA1"/>
<stop offset="1" stop-color="#FCB534"/>
</linearGradient>
<linearGradient id="paint4_linear_5153_7825" x1="30.0053" y1="42.9913" x2="30.0053" y2="13.871" gradientUnits="userSpaceOnUse">
<stop stop-color="#FCB534"/>
<stop offset="1" stop-color="#E38622"/>
</linearGradient>
</defs>
</svg>
